<?xml version="1.0" encoding="utf-8"?>
<!-- Svg Vector Icons : http://www.onlinewebfonts.com/icon -->
<!DOCTYPE svg PUBLIC "-//W3C//DTD SVG 1.1//EN" "http://www.w3.org/Graphics/SVG/1.1/DTD/svg11.dtd">
<svg version="1.1" xmlns="http://www.w3.org/2000/svg" xmlns:xlink="http://www.w3.org/1999/xlink" x="0px" y="0px" viewBox="0 0 1000 1000" enable-background="new 0 0 1000 1000" xml:space="preserve">
<metadata> Svg Vector Icons : http://www.onlinewebfonts.com/icon </metadata>
<g><path d="M627.7,518c20.6,4.9,12.7,4.3,31.8,10c160.9,48.4,270.4,112,270.4,220.2C929.9,883.9,820.2,990,515,990c-251.6,0-444.9-77.8-444.9-241.1c0-126.7,129.9-187.5,288-227.8c16-4.1,9.7-3,26.7-6.7c1.6,1.6,37,30.8,37,30.8c-150.3,17.2-309,81.7-309,204c0,128,201.8,196.3,393.3,196.3c192.6,0,381.3-44.2,381.3-191.4c0-114.3-138.9-190.1-293.4-208.5C594.9,545,626.5,519.1,627.7,518z"/><path d="M514.1,577c89.7-3.8,221.8-143.7,221.8-298.9c0-165.1-75.9-271.2-223.6-268.1c-171.4,3.6-230.9,103-230.9,268.1c0,143.3,122,301.1,233.2,298.9c1.5,0-5.7-44.5-6.6-44.5c-81.7-0.5-171.1-107.4-173.8-193.4c-1.6-49.7-42.1-126.2,16.5-131.1C458.4,199,463.9,138,503.2,138c40.7,0,41.7,49.4,122.6,63.7c105.1,18.6,78.4,113.3,61,158c-39.5,101.6-108.6,171-179,172.8C506.8,532.6,512.5,577.1,514.1,577z"/><path d="M710,679.3h44.4V856H710V679.3z"/><path d="M644,745.6l176.7-0.3v44.6H644V745.6z"/><path d="M473,602.6h65.9c0,0,18.1-18.2,18.7,8.9c0.5,20.1-27.8,22.6-24.5,38.5c10.8,53.4,34.4,132.8,34.4,132.8s47.9-166.9,47.3-217.7c-0.2-16.8,19-28.6,22.9-6.8c5.4,30.3-4,101.7-4.4,104C606.8,813.6,506.4,940,506.4,940S396,826.6,384.3,642.7c-0.1-1.7,1.1-99.8,4.3-93.2c4.1,8.4,29.2,5.8,28.1,34.2c-2.8,72.8,22.2,179.2,22.2,179.2s18.1-68.6,28.2-116.1c3-14-11.6-27.5-13.8-35.4C442.7,573.7,473,602.6,473,602.6z"/></g>
</svg>